<svg xmlns="http://www.w3.org/2000/svg" viewBox="0 0 295 300" fill="#826550"><path d="M8.587 98.589l52.227 52.552-14.632 62.525c-1.34 4.372-.977 8.018 1.082 10.861 1.749 2.407 4.499 3.788 7.536 3.788 2.445 0 4.893-.857 7.472-2.62l60.631-31.366 15.785 8.17a79.41 79.41 0 014.977-14.99l-20.762-10.745-59.237 30.651 14.305-61.134-52.03-52.362 65.544-8.335 31.417-62.418 31.418 62.418 65.546 8.335-52.034 52.362 2.103 8.973c6.719-4.865 14.188-8.744 22.247-11.339l45.041-45.326c6.267-4.873 5.454-10.024 4.794-12.053-.665-2.044-3.062-6.729-11.11-6.932l-66.385-8.444-31.626-62.84C130.202.827 125.038 0 122.908 0c-2.138 0-7.302.827-9.996 8.32L81.286 71.16l-66.379 8.444c-8.047.204-10.448 4.893-11.114 6.932-.66 2.028-1.47 7.18 4.794 12.053zM295.731 225.198c0-27.898-15.549-52.212-38.425-64.785a73.388 73.388 0 00-35.455-9.1 73.375 73.375 0 00-34.773 8.734c-4.972 2.66-9.562 5.91-13.771 9.597a74.156 74.156 0 00-18.083 23.841 73.226 73.226 0 00-5.24 14.854c-1.274 5.424-2.019 11.05-2.019 16.859a73.375 73.375 0 009.103 35.469c12.573 22.866 36.892 38.415 64.779 38.415 4.154 0 8.201-.427 12.167-1.097 30.98-5.169 55.441-29.625 60.621-60.601.665-3.97 1.096-8.023 1.096-12.186zm-73.879 58.284c-32.138 0-58.279-26.146-58.279-58.284 0-3.21.324-6.333.832-9.399a57.772 57.772 0 014.667-15.153c2.225-4.763 5.043-9.186 8.414-13.146a58.835 58.835 0 0113.319-11.537c9.004-5.697 19.632-9.049 31.053-9.049 32.133 0 58.279 26.146 58.279 58.285 0 3.087-.314 6.093-.776 9.049-3.91 24.892-23.582 44.559-48.475 48.459-2.955.461-5.956.775-9.034.775z"/><path d="M225.051 209.943c-3.539 0-6.54.457-9.003 1.371-1.473.559-3.519 1.691-6.145 3.402l3.098-18.931h35.353v-14.447h-47.631l-3.047 23.999-2.809 22.104-.218 1.716 15.254.722c1.351-2.59 3.356-4.357 6.018-5.312 1.508-.523 3.296-.777 5.362-.777 4.367 0 7.581 1.523 9.653 4.565 2.057 3.047 3.093 6.773 3.093 11.191 0 4.499-1.103 8.236-3.301 11.202-2.204 2.961-5.413 4.443-9.628 4.443-3.651 0-6.429-1.005-8.338-3.017-1.904-2.016-3.194-4.869-3.87-8.566h-16.955c.594 8.12 3.534 14.386 8.82 18.804 5.291 4.423 12.056 6.632 20.281 6.632 10.217 0 17.896-3.148 23.023-9.435 5.129-6.286 7.693-13.432 7.693-21.435 0-9.19-2.666-16.198-7.992-21.013-5.325-4.81-11.556-7.218-18.711-7.218z"/></svg>
